<?xml version="1.0" encoding="UTF-8"?>
<svg xmlns="http://www.w3.org/2000/svg" xmlns:xlink="http://www.w3.org/1999/xlink" xmlns:svg="http://www.w3.org/2000/svg" xmlns:sodipodi="http://sodipodi.sourceforge.net/DTD/sodipodi-0.dtd" xmlns:rdf="http://www.w3.org/1999/02/22-rdf-syntax-ns#" xmlns:inkscape="http://www.inkscape.org/namespaces/inkscape" xmlns:dc="http://purl.org/dc/elements/1.1/" xmlns:cc="http://creativecommons.org/ns#" version="1.1" viewBox="0 0 85 85">
  <defs>
    <style>
      .cls-1, .cls-2, .cls-3, .cls-4 {
        fill: none;
      }

      .cls-2, .cls-3 {
        stroke-miterlimit: 15.7;
      }

      .cls-2, .cls-3, .cls-4 {
        stroke: #316d7b;
        stroke-width: 1.6px;
      }

      .cls-3 {
        stroke-linecap: round;
      }

      .cls-5 {
        clip-path: url(#clippath-17);
      }

      .cls-6 {
        clip-path: url(#clippath-19);
      }

      .cls-7 {
        clip-path: url(#clippath-11);
      }

      .cls-8 {
        clip-path: url(#clippath-16);
      }

      .cls-9 {
        clip-path: url(#clippath-18);
      }

      .cls-10 {
        clip-path: url(#clippath-10);
      }

      .cls-11 {
        clip-path: url(#clippath-15);
      }

      .cls-12 {
        clip-path: url(#clippath-13);
      }

      .cls-13 {
        clip-path: url(#clippath-14);
      }

      .cls-14 {
        clip-path: url(#clippath-12);
      }

      .cls-15 {
        clip-path: url(#clippath-20);
      }

      .cls-16 {
        clip-path: url(#clippath-21);
      }

      .cls-17 {
        clip-path: url(#clippath-22);
      }

      .cls-18 {
        clip-path: url(#clippath-23);
      }

      .cls-19 {
        clip-path: url(#clippath-24);
      }

      .cls-20 {
        clip-path: url(#clippath-25);
      }

      .cls-21 {
        clip-path: url(#clippath-1);
      }

      .cls-22 {
        clip-path: url(#clippath-3);
      }

      .cls-23 {
        clip-path: url(#clippath-4);
      }

      .cls-24 {
        clip-path: url(#clippath-2);
      }

      .cls-25 {
        clip-path: url(#clippath-7);
      }

      .cls-26 {
        clip-path: url(#clippath-6);
      }

      .cls-27 {
        clip-path: url(#clippath-9);
      }

      .cls-28 {
        clip-path: url(#clippath-8);
      }

      .cls-29 {
        clip-path: url(#clippath-5);
      }

      .cls-4 {
        stroke-linejoin: round;
      }

      .cls-30 {
        clip-path: url(#clippath);
      }
    </style>
    <clipPath id="clippath">
      <rect class="cls-1" x="-730.3" y="-405.8" width="1325.5" height="937.2"/>
    </clipPath>
    <clipPath id="clippath-1">
      <rect class="cls-1" x="-730.3" y="-405.8" width="1325.5" height="937.2"/>
    </clipPath>
    <clipPath id="clippath-2">
      <rect class="cls-1" x="-730.3" y="-405.8" width="1325.5" height="937.2"/>
    </clipPath>
    <clipPath id="clippath-3">
      <rect class="cls-1" x="-730.3" y="-405.8" width="1325.5" height="937.2"/>
    </clipPath>
    <clipPath id="clippath-4">
      <rect class="cls-1" x="-730.3" y="-405.8" width="1325.5" height="937.2"/>
    </clipPath>
    <clipPath id="clippath-5">
      <rect class="cls-1" x="-564.7" y="-455.6" width="1325.5" height="937.2" transform="translate(19.5 73.2) rotate(-45)"/>
    </clipPath>
    <clipPath id="clippath-6">
      <rect class="cls-1" x="-730.3" y="-405.8" width="1325.5" height="937.2"/>
    </clipPath>
    <clipPath id="clippath-7">
      <rect class="cls-1" x="-730.3" y="-405.8" width="1325.5" height="937.2"/>
    </clipPath>
    <clipPath id="clippath-8">
      <rect class="cls-1" x="-730.3" y="-405.8" width="1325.5" height="937.2"/>
    </clipPath>
    <clipPath id="clippath-9">
      <rect class="cls-1" x="-730.3" y="-405.8" width="1325.5" height="937.2"/>
    </clipPath>
    <clipPath id="clippath-10">
      <rect class="cls-1" x="-730.3" y="-405.8" width="1325.5" height="937.2"/>
    </clipPath>
    <clipPath id="clippath-11">
      <rect class="cls-1" x="-730.3" y="-405.8" width="1325.5" height="937.2"/>
    </clipPath>
    <clipPath id="clippath-12">
      <rect class="cls-1" x="-730.3" y="-405.8" width="1325.5" height="937.2"/>
    </clipPath>
    <clipPath id="clippath-13">
      <rect class="cls-1" x="-730.3" y="-405.8" width="1325.5" height="937.2"/>
    </clipPath>
    <clipPath id="clippath-14">
      <rect class="cls-1" x="-730.3" y="-405.8" width="1325.5" height="937.2"/>
    </clipPath>
    <clipPath id="clippath-15">
      <rect class="cls-1" x="-730.3" y="-405.8" width="1325.5" height="937.2"/>
    </clipPath>
    <clipPath id="clippath-16">
      <rect class="cls-1" x="-730.3" y="-405.8" width="1325.5" height="937.2"/>
    </clipPath>
    <clipPath id="clippath-17">
      <rect class="cls-1" x="-730.3" y="-405.8" width="1325.5" height="937.2"/>
    </clipPath>
    <clipPath id="clippath-18">
      <rect class="cls-1" x="-730.3" y="-405.8" width="1325.5" height="937.2"/>
    </clipPath>
    <clipPath id="clippath-19">
      <rect class="cls-1" x="-730.3" y="-405.8" width="1325.5" height="937.2"/>
    </clipPath>
    <clipPath id="clippath-20">
      <rect class="cls-1" x="-730.3" y="-405.8" width="1325.5" height="937.2"/>
    </clipPath>
    <clipPath id="clippath-21">
      <rect class="cls-1" x="-730.3" y="-405.8" width="1325.5" height="937.2"/>
    </clipPath>
    <clipPath id="clippath-22">
      <rect class="cls-1" x="-730.3" y="-405.8" width="1325.5" height="937.2"/>
    </clipPath>
    <clipPath id="clippath-23">
      <rect class="cls-1" x="-730.3" y="-405.8" width="1325.5" height="937.2"/>
    </clipPath>
    <clipPath id="clippath-24">
      <rect class="cls-1" x="-730.3" y="-405.8" width="1325.5" height="937.2"/>
    </clipPath>
    <clipPath id="clippath-25">
      <rect class="cls-1" x="-730.3" y="-405.8" width="1325.5" height="937.2"/>
    </clipPath>
  </defs>
  <!-- Generator: Adobe Illustrator 28.7.5, SVG Export Plug-In . SVG Version: 1.2.0 Build 176)  -->
  <g>
    <g id="svg8">
      <sodipodi:namedview id="base" bordercolor="#666666" borderopacity="1.0" fit-margin-bottom="0" fit-margin-left="0" fit-margin-right="0" fit-margin-top="0" gridtolerance="1" guidetolerance="1" inkscape:current-layer="Calque_2-9" inkscape:cx="81.586363" inkscape:cy="26.45795" inkscape:document-units="mm" inkscape:pageopacity="0.0" inkscape:pageshadow="2" inkscape:window-height="1148" inkscape:window-maximized="1" inkscape:window-width="1920" inkscape:window-x="-8" inkscape:window-y="-8" inkscape:zoom="3.1948461" objecttolerance="1" pagecolor="#ffffff" showgrid="false"/>
      <g id="layer1" inkscape:groupmode="layer" inkscape:label="Calque 1">
        <g id="Calque_2-9">
          <g class="cls-30">
            <line id="line7621" class="cls-2" x1="37.8" y1="13.1" x2="37.8" y2="1.3"/>
          </g>
          <g class="cls-21">
            <path id="path7623" class="cls-2" d="M35.4,31.7v-11.6c-2.3-.9-3.8-3.1-3.8-5.7s2.7-6.2,6.1-6.2,6.2,2.8,6.2,6.2-1.1,4.1-2.8,5.2v2.8l-.9.9.9.9v1.9l-.9.9v1.9l.9.9v2.8l-2.8,1.9-2.8-2.8Z" inkscape:connector-curvature="0"/>
          </g>
          <g class="cls-24">
            <path id="path7625" class="cls-2" d="M33.1,21.3c-1.4,1-3.2,1.3-4.8.9l-2,2h-1.3v1.3l-1.3,1.3h-1.3l-1.3,1.3v1.3l-2,2-3.3-.7v-4l8.2-8.2c-1-2.3-.5-4.9,1.4-6.7,1.3-1.3,3-1.9,4.7-1.8" inkscape:connector-curvature="0"/>
          </g>
          <g class="cls-22">
            <path id="path7965" class="cls-4" d="M34.2,74.2c.5-.5,1-1.3,2.6-1.3h18.5c1.5,0,12.2-8.2,13.2-9.3,1-1.1,5.4-7.8,6.6-10.6-.8-1-2.2-1.4-4.7-.9-2.3.5-3.6,3.1-5.2,6.1l-8.7,3.8" inkscape:connector-curvature="0"/>
          </g>
          <g class="cls-23">
            <path id="path7967" class="cls-4" d="M42.1,65h10.6c5.3,0,5.3-6.6,0-6.6h-7c-1.1,0-3.2-1.1-4.9-1.3-2.5-.4-5.5-.2-6.6,0-1.8.3-4,1.4-5.3,2.6-2,2-5.3,4-5.3,4" inkscape:connector-curvature="0"/>
          </g>
          <g class="cls-29">
            <rect id="rect7969" class="cls-4" x="20.9" y="61" width="9.4" height="22.5" transform="translate(-43.6 39.3) rotate(-45)"/>
          </g>
          <g class="cls-26">
            <polyline id="polyline7971" class="cls-4" points="36.7 56.9 36.7 44.5 45.4 38.4 53.9 44.5 53.9 58"/>
          </g>
          <g class="cls-25">
            <rect id="rect7973" class="cls-2" x="41.9" y="47" width="6.7" height="6.7"/>
          </g>
          <g class="cls-28">
            <polyline id="polyline7975" class="cls-4" points="48.7 40.8 48.7 28.2 69.5 28.2 69.5 52.6"/>
          </g>
          <g class="cls-27">
            <line id="line7977" class="cls-3" x1="64.5" y1="33.5" x2="64.5" y2="35.2"/>
          </g>
          <g class="cls-10">
            <line id="line7979" class="cls-3" x1="60.8" y1="33.5" x2="60.8" y2="35.2"/>
          </g>
          <g class="cls-7">
            <line id="line7981" class="cls-3" x1="57.1" y1="33.5" x2="57.1" y2="35.2"/>
          </g>
          <g class="cls-14">
            <line id="line7983" class="cls-3" x1="53.5" y1="33.5" x2="53.5" y2="35.2"/>
          </g>
          <g class="cls-12">
            <line id="line7985" class="cls-3" x1="64.5" y1="38.5" x2="64.5" y2="40.2"/>
          </g>
          <g class="cls-13">
            <line id="line7987" class="cls-3" x1="60.8" y1="38.5" x2="60.8" y2="40.2"/>
          </g>
          <g class="cls-11">
            <line id="line7989" class="cls-3" x1="57.1" y1="38.5" x2="57.1" y2="40.2"/>
          </g>
          <g class="cls-8">
            <line id="line7991" class="cls-3" x1="53.5" y1="38.5" x2="53.5" y2="40.2"/>
          </g>
          <g class="cls-5">
            <line id="line7993" class="cls-3" x1="64.5" y1="43.4" x2="64.5" y2="45.1"/>
          </g>
          <g class="cls-9">
            <line id="line7995" class="cls-3" x1="60.8" y1="43.4" x2="60.8" y2="45.1"/>
          </g>
          <g class="cls-6">
            <line id="line7997" class="cls-3" x1="57.1" y1="43.4" x2="57.1" y2="45.1"/>
          </g>
          <g class="cls-15">
            <line id="line7999" class="cls-3" x1="64.5" y1="48.4" x2="64.5" y2="50.1"/>
          </g>
          <g class="cls-16">
            <line id="line8001" class="cls-3" x1="60.8" y1="48.4" x2="60.8" y2="50.1"/>
          </g>
          <g class="cls-17">
            <line id="line8003" class="cls-3" x1="57.1" y1="48.4" x2="57.1" y2="50.1"/>
          </g>
          <g class="cls-18">
            <line id="line8005" class="cls-3" x1="64.5" y1="53.3" x2="64.5" y2="55"/>
          </g>
          <g class="cls-19">
            <line id="line8007" class="cls-3" x1="60.8" y1="53.3" x2="60.8" y2="55"/>
          </g>
          <g class="cls-20">
            <line id="line8009" class="cls-3" x1="57.1" y1="53.3" x2="57.1" y2="55"/>
          </g>
        </g>
      </g>
    </g>
  </g>
</svg>