<?xml version="1.0" encoding="UTF-8"?>
<svg xmlns="http://www.w3.org/2000/svg" xmlns:svg="http://www.w3.org/2000/svg" xmlns:sodipodi="http://sodipodi.sourceforge.net/DTD/sodipodi-0.dtd" xmlns:rdf="http://www.w3.org/1999/02/22-rdf-syntax-ns#" xmlns:inkscape="http://www.inkscape.org/namespaces/inkscape" xmlns:dc="http://purl.org/dc/elements/1.1/" xmlns:cc="http://creativecommons.org/ns#" version="1.1" viewBox="0 0 85 85">
  <defs>
    <style>
      .cls-1, .cls-2 {
        isolation: isolate;
      }

      .cls-3 {
        fill: #fff;
      }

      .cls-2 {
        fill: #316d7b;
        opacity: .7;
      }

      .cls-4 {
        fill: none;
        stroke: #316d7b;
        stroke-linejoin: round;
        stroke-width: 1.6px;
      }
    </style>
  </defs>
  <!-- Generator: Adobe Illustrator 28.7.5, SVG Export Plug-In . SVG Version: 1.2.0 Build 176)  -->
  <g>
    <g id="Calque_1">
      <g id="svg8">
        <sodipodi:namedview id="base" bordercolor="#666666" borderopacity="1.0" fit-margin-bottom="0" fit-margin-left="0" fit-margin-right="0" fit-margin-top="0" inkscape:current-layer="layer1" inkscape:cx="40.450375" inkscape:cy="45.168348" inkscape:document-units="mm" inkscape:pageopacity="0.0" inkscape:pageshadow="2" inkscape:window-height="1148" inkscape:window-maximized="1" inkscape:window-width="1920" inkscape:window-x="-8" inkscape:window-y="-8" inkscape:zoom="1.3559251" pagecolor="#ffffff" showgrid="false"/>
        <g id="layer1" inkscape:groupmode="layer" inkscape:label="Calque 1">
          <g id="g20380">
            <g id="g12436">
              <g id="Calque_1-9">
                <g id="g25004">
                  <polyline id="polyline24988" class="cls-4" points="25.5 78.2 25.5 54.5 47 54.5 47 78.2"/>
                  <polyline id="polyline24990" class="cls-4" points="56.8 77.6 5 77.6 5 32 36.6 10.2 54.3 22.7"/>
                  <g id="g25002">
                    <path id="path24992" class="cls-4" d="M56.8,32.6v46.5c0,2.4,1.9,4.5,4.3,4.5h0c2.4,0,4.4-1.9,4.5-4.4h0" inkscape:connector-curvature="0"/>
                    <g id="g25000">
                      <circle id="circle24994" class="cls-4" cx="65.6" cy="10.7" r="6.7"/>
                      <path id="path24996" class="cls-4" d="M74.5,48.3c0,2,1.7,3.7,3.7,3.7h0c2.1,0,3.7-1.7,3.7-3.7v-19.1c0-6.2-7.1-7-7.1-7h-18.4s-7.1.8-7.1,7v19.1c0,2,1.7,3.7,3.7,3.7h0c2,0,3.7-1.7,3.7-3.7h0" inkscape:connector-curvature="0"/>
                      <path id="path24998" class="cls-4" d="M74.5,32.6v46.5c0,2.4-1.9,4.5-4.3,4.5h0c-2.4,0-4.4-1.9-4.5-4.4h0v-26.7" inkscape:connector-curvature="0"/>
                    </g>
                  </g>
                </g>
                <g id="layer1-5" inkscape:label="Calque 1">
                  <g id="Calque_2-9">
                    <g id="Calque_1-2-2">
                      <g id="g18299">
                        <circle id="circle18295" class="cls-2" cx="61.9" cy="62" r="22.7"/>
                        <g class="cls-1">
                          <path class="cls-3" d="M56.4,52.7c2.9,0,4.1,2,4.1,4.7s-1.2,4.7-4.1,4.7-4.1-2-4.1-4.7,1.2-4.7,4.1-4.7ZM56.4,54.8c-1.1,0-1.3,1.1-1.3,2.5s.2,2.5,1.3,2.5,1.3-1.1,1.3-2.5-.2-2.5-1.3-2.5ZM68,53l-9.3,19.7h-3.1l9.3-19.7s3.1,0,3.1,0ZM67.3,63.4c2.9,0,4.1,2,4.1,4.7s-1.2,4.7-4.1,4.7-4.1-2-4.1-4.7,1.2-4.7,4.1-4.7ZM67.3,65.6c-1.1,0-1.3,1.1-1.3,2.5s.2,2.5,1.3,2.5,1.3-1.1,1.3-2.5-.2-2.5-1.3-2.5Z"/>
                        </g>
                      </g>
                    </g>
                  </g>
                </g>
              </g>
            </g>
          </g>
        </g>
      </g>
    </g>
  </g>
</svg>