<?xml version="1.0" encoding="utf-8"?>
<!-- Generator: Adobe Illustrator 28.7.10, SVG Export Plug-In . SVG Version: 9.03 Build 57640)  -->
<svg version="1.0" id="Calque_2_00000108290978130498485560000001218641619828435371_"
	 xmlns="http://www.w3.org/2000/svg" xmlns:xlink="http://www.w3.org/1999/xlink" x="0px" y="0px" viewBox="0 0 109 96.7"
	 style="enable-background:new 0 0 109 96.7;" xml:space="preserve">
<style type="text/css">
	.st0{fill:none;stroke:#316D7B;stroke-width:1.6;stroke-linejoin:round;stroke-miterlimit:10;}
</style>
<g>
	<g>
		<g>
			<path class="st0" d="M53.9,26.1c0,0-1.5,0-3.5-1.2c-0.1,0-0.1-0.1-0.2-0.1c-1.4-0.9-2.2-2.5-2.2-4.2v-4c0,0,2.3-0.2,4.3,1.8
				S53.9,26.1,53.9,26.1z"/>
			<path class="st0" d="M53.9,15.1c0,0-1.5,0-3.5-1.2c-0.1,0-0.1-0.1-0.2-0.1c-1.4-0.9-2.2-2.5-2.2-4.2v-4c0,0,2.3-0.2,4.3,1.8
				S53.9,15.1,53.9,15.1z"/>
			<path class="st0" d="M53.9,37.3c0,0-1.5,0-3.5-1.2c-0.1,0-0.1-0.1-0.2-0.1c-1.4-1-2.2-2.6-2.2-4.3v-4c0,0,2.3-0.2,4.3,1.8
				S53.9,37.3,53.9,37.3z"/>
			<path class="st0" d="M53.9,26.1c0,0,1.5,0,3.5-1.2c0.1,0,0.1-0.1,0.2-0.1c1.4-0.9,2.2-2.5,2.2-4.2v-4c0,0-2.3-0.2-4.3,1.8
				C53.4,20.4,53.9,26.1,53.9,26.1z"/>
			<path class="st0" d="M53.9,15.1c0,0,1.5,0,3.5-1.2c0.1,0,0.1-0.1,0.2-0.1c1.4-0.9,2.2-2.5,2.2-4.2v-4c0,0-2.3-0.2-4.3,1.8
				C53.4,9.3,53.9,15.1,53.9,15.1z"/>
			<path class="st0" d="M53.9,37.3c0,0,1.5,0,3.5-1.2c0.1,0,0.1-0.1,0.2-0.1c1.4-0.9,2.2-2.5,2.2-4.2v-4c0,0-2.3-0.2-4.3,1.8
				C53.4,31.5,53.9,37.3,53.9,37.3z"/>
			<line class="st0" x1="48" y1="5.5" x2="48" y2="0.6"/>
			<line class="st0" x1="53.9" y1="9.2" x2="53.9" y2="0.6"/>
			<line class="st0" x1="59.7" y1="5.5" x2="59.7" y2="0.6"/>
			<line class="st0" x1="53.9" y1="45.7" x2="53.9" y2="36.9"/>
		</g>
		<g>
			<path class="st0" d="M33.3,37.3c0,0-1.5,0-3.5-1.2c-0.1,0-0.1-0.1-0.2-0.1c-1.4-0.9-2.2-2.5-2.2-4.2v-4c0,0,2.3-0.2,4.3,1.8
				S33.3,37.3,33.3,37.3z"/>
			<path class="st0" d="M33.3,26.3c0,0-1.5,0-3.5-1.2c-0.1,0-0.1-0.1-0.2-0.1c-1.4-0.9-2.2-2.5-2.2-4.2v-4c0,0,2.3-0.2,4.3,1.8
				S33.3,26.3,33.3,26.3z"/>
			<path class="st0" d="M33.3,48.4c0,0-1.5,0-3.5-1.2c-0.1,0-0.1-0.1-0.2-0.1c-1.4-0.9-2.2-2.5-2.2-4.2v-4c0,0,2.3-0.2,4.3,1.8
				S33.3,48.4,33.3,48.4z"/>
			<path class="st0" d="M33.3,37.3c0,0,1.5,0,3.5-1.2c0.1,0,0.1-0.1,0.2-0.1c1.4-0.9,2.2-2.5,2.2-4.2v-4c0,0-2.3-0.2-4.3,1.8
				S33.3,37.3,33.3,37.3z"/>
			<path class="st0" d="M33.3,26.3c0,0,1.5,0,3.5-1.2c0.1,0,0.1-0.1,0.2-0.1c1.4-0.9,2.2-2.5,2.2-4.2v-4c0,0-2.3-0.2-4.3,1.8
				S33.3,26.3,33.3,26.3z"/>
			<path class="st0" d="M33.3,48.4c0,0,1.5,0,3.5-1.2c0.1,0,0.1-0.1,0.2-0.1c1.4-0.9,2.2-2.5,2.2-4.2v-4c0,0-2.3-0.2-4.3,1.8
				S33.3,48.4,33.3,48.4z"/>
			<line class="st0" x1="27.4" y1="16.7" x2="27.4" y2="11.7"/>
			<line class="st0" x1="33.3" y1="20.4" x2="33.3" y2="11.7"/>
			<line class="st0" x1="39.1" y1="16.7" x2="39.1" y2="11.7"/>
			<line class="st0" x1="33.3" y1="56.8" x2="33.3" y2="48.1"/>
		</g>
		<g>
			<path class="st0" d="M74.5,37.3c0,0-1.5,0-3.5-1.2c-0.1,0-0.1-0.1-0.2-0.1c-1.4-0.9-2.2-2.5-2.2-4.2v-4c0,0,2.3-0.2,4.3,1.8
				S74.5,37.3,74.5,37.3z"/>
			<path class="st0" d="M74.5,26.3c0,0-1.5,0-3.5-1.2c-0.1,0-0.1-0.1-0.2-0.1c-1.4-0.9-2.2-2.5-2.2-4.2v-4c0,0,2.3-0.2,4.3,1.8
				S74.5,26.3,74.5,26.3z"/>
			<path class="st0" d="M74.5,48.4c0,0-1.5,0-3.5-1.2c-0.1,0-0.1-0.1-0.2-0.1c-1.4-0.9-2.2-2.5-2.2-4.2v-4c0,0,2.3-0.2,4.3,1.8
				S74.5,48.4,74.5,48.4z"/>
			<path class="st0" d="M74.5,37.3c0,0,1.5,0,3.5-1.2c0.1,0,0.1-0.1,0.2-0.1c1.4-0.9,2.2-2.5,2.2-4.2v-4c0,0-2.3-0.2-4.3,1.8
				S74.5,37.3,74.5,37.3z"/>
			<path class="st0" d="M74.5,26.3c0,0,1.5,0,3.5-1.2c0.1,0,0.1-0.1,0.2-0.1c1.4-0.9,2.2-2.5,2.2-4.2v-4c0,0-2.3-0.2-4.3,1.8
				S74.5,26.3,74.5,26.3z"/>
			<path class="st0" d="M74.5,48.4c0,0,1.5,0,3.5-1.2c0.1,0,0.1-0.1,0.2-0.1c1.4-0.9,2.2-2.5,2.2-4.2v-4c0,0-2.3-0.2-4.3,1.8
				S74.5,48.4,74.5,48.4z"/>
			<line class="st0" x1="68.6" y1="16.7" x2="68.6" y2="11.7"/>
			<line class="st0" x1="74.5" y1="20.4" x2="74.5" y2="11.7"/>
			<line class="st0" x1="80.3" y1="16.7" x2="80.3" y2="11.7"/>
			<line class="st0" x1="74.5" y1="56.8" x2="74.5" y2="48.1"/>
		</g>
	</g>
	<g>
		<path class="st0" d="M44.7,87.6l0.5-0.2l1,7.6h4.9L50,86h19l3.4,1.8l-2.7,7.1h5.4l1.8-4.8l2,1.1v3.7h4.9v-1v-2.3v-1
			c0-0.2,0-0.5-0.1-0.7l-2.8-8.6l1.8-6.5c0.2-0.6,0.4-1.5,0.4-2.2V67c0.9,0.6,1.5,1.7,1.5,2.8v10.3h4.9V69.8c0-4.7-3.8-8.3-8.3-8.3
			H81H42c-1.2,0-2.6,0.5-3.6,1.3L27,72.5l-7.6,2.3c-0.5,0.1-0.9,0.6-0.9,1.1l-0.2,15.6c-0.1,0.2,0.1,0.5,0.4,0.6l3.1,0.9h0.1
			c0,0,0.1-0.1,0.2-0.1l1.5-0.9c2.5-1.5,4.4-3.4,5.9-5.8h8.2l2.2,2.3v6.4h4.9v-7.3H44.7z"/>
	</g>
</g>
</svg>
