<?xml version="1.0" encoding="utf-8"?>
<!-- Generator: Adobe Illustrator 27.9.0, SVG Export Plug-In . SVG Version: 6.00 Build 0)  -->
<svg version="1.1" id="Calque_1" xmlns="http://www.w3.org/2000/svg" xmlns:xlink="http://www.w3.org/1999/xlink" x="0px" y="0px"
	 viewBox="0 0 85 85" style="enable-background:new 0 0 85 85;" xml:space="preserve">
<style type="text/css">
	.st0{opacity:0.3;fill-rule:evenodd;clip-rule:evenodd;fill:#2DA5DE;enable-background:new    ;}
	.st1{fill:none;stroke:#2DA5DE;stroke-width:1.9188;stroke-linecap:round;stroke-linejoin:round;stroke-miterlimit:10;}
	.st2{fill:none;stroke:#2DA5DE;stroke-width:1.984;stroke-linecap:round;stroke-linejoin:round;stroke-miterlimit:10;}
	.st3{fill:none;stroke:#2DA5DE;stroke-width:0.75;stroke-linecap:round;stroke-linejoin:round;stroke-miterlimit:10;}
	.st4{fill:none;stroke:#2DA5DE;stroke-width:2.2984;stroke-linecap:round;stroke-linejoin:round;stroke-miterlimit:10;}
</style>
<g id="Calque_2_00000059309539666386124490000000813414738827391903_">
	<g>
		<g id="Calque_2_00000138535947487768176430000012271077535067438225_">
			<g id="path107309_00000067932390465742119030000010513979003654914964_">
				<circle class="st0" cx="42.4" cy="29.4" r="29.4"/>
			</g>
		</g>
	</g>
</g>
<path class="st1" d="M44.3,42.5h7v-6.6h-7V42.5z"/>
<path class="st1" d="M55.4,42.5h7v-6.6h-7V42.5z"/>
<rect x="50.9" y="24.3" class="st1" width="4.7" height="4.7"/>
<rect x="41.2" y="21.5" class="st2" width="24.2" height="42.9"/>
<rect x="49.2" y="53.4" class="st2" width="8.1" height="11"/>
<rect x="27.1" y="54.4" class="st2" width="4.7" height="10"/>
<line class="st2" x1="41.2" y1="48.7" x2="65.4" y2="48.7"/>
<line class="st2" x1="41.2" y1="45.6" x2="65.4" y2="45.6"/>
<line class="st2" x1="41.2" y1="32.1" x2="65.4" y2="32.1"/>
<line class="st2" x1="2.4" y1="64.4" x2="82.1" y2="64.4"/>
<circle class="st2" cx="75.8" cy="48.2" r="6.8"/>
<line class="st2" x1="75.8" y1="46.7" x2="75.8" y2="64.4"/>
<line class="st2" x1="73.5" y1="47.1" x2="75.8" y2="49.8"/>
<line class="st2" x1="78.3" y1="50.6" x2="75.8" y2="53"/>
<rect x="10.3" y="54.9" class="st3" width="11.8" height="5.9"/>
<rect x="6" y="44.1" class="st2" width="29.8" height="20.3"/>
<rect x="27.5" y="41.4" class="st2" width="8.3" height="2.7"/>
<rect x="23.9" y="47.1" class="st2" width="11.9" height="4"/>
<rect x="9.8" y="54.9" class="st2" width="12.3" height="5.9"/>
<rect x="16.5" y="47.3" class="st4" width="3.7" height="3.7"/>
<rect x="9.9" y="47.3" class="st4" width="3.7" height="3.7"/>
<rect x="8.1" y="41.4" class="st2" width="6.3" height="2.7"/>
</svg>
