<?xml version="1.0" encoding="UTF-8"?>
<svg xmlns="http://www.w3.org/2000/svg" version="1.1" viewBox="0 0 85 85">
  <defs>
    <style>
      .cls-1 {
        fill: none;
        stroke: #316d7b;
        stroke-linejoin: round;
        stroke-width: 1.6px;
      }
    </style>
  </defs>
  <!-- Generator: Adobe Illustrator 28.7.5, SVG Export Plug-In . SVG Version: 1.2.0 Build 176)  -->
  <g>
    <g id="Calque_2">
      <g>
        <circle class="cls-1" cx="53.4" cy="31.1" r="29.5"/>
        <path class="cls-1" d="M32,60.2l-21.7,21.8c-1.9,1.9-4.9,1.9-6.8,0h0c-1.9-1.9-1.9-4.9,0-6.8l21.7-21.8,6.8,6.8Z"/>
        <polyline class="cls-1" points="35.6 54.4 31 59.2 26.1 54.3 30.8 49.5"/>
      </g>
      <polyline class="cls-1" points="59 19 59 13.8 48.2 13.8 48.2 19"/>
      <path class="cls-1" d="M50.6,33.4c-9.4-.6-15.3-3.6-15.3-3.6v-11.1h36.7v11.1s-5.8,3.1-15.2,3.6"/>
      <polyline class="cls-1" points="70.4 30.3 70.4 45.9 36.8 45.9 36.8 30.3"/>
      <rect class="cls-1" x="50.6" y="31.2" width="6.1" height="4.8" transform="translate(107.3 67.3) rotate(-180)"/>
    </g>
  </g>
</svg>